<?xml version="1.0" encoding="UTF-8" standalone="no"?>
<!-- Created with Inkscape (http://www.inkscape.org/) -->

<svg
   xmlns:dc="http://purl.org/dc/elements/1.1/"
   xmlns:cc="http://creativecommons.org/ns#"
   xmlns:rdf="http://www.w3.org/1999/02/22-rdf-syntax-ns#"
   xmlns:svg="http://www.w3.org/2000/svg"
   xmlns="http://www.w3.org/2000/svg"
   version="1.1"
   width="276.62787"
   height="275.20898"
   id="svg3009">
  <defs
     id="defs3011" />
  <metadata
     id="metadata3014">
    <rdf:RDF>
      <cc:Work
         rdf:about="">
        <dc:format>image/svg+xml</dc:format>
        <dc:type
           rdf:resource="http://purl.org/dc/dcmitype/StillImage" />
        <dc:title></dc:title>
      </cc:Work>
    </rdf:RDF>
  </metadata>
  <g
     transform="translate(-95.971773,-346.18626)"
     id="layer1">
    <path
       d="m 230.00917,356.20179 c -8.28883,0.11133 -16.1875,0.82812 -22.28125,2.1875 -43.5,9.5 -78,38.75 -93.625,79.375 -6.5,16.875 -8.25,26.875 -8.125,47 0.125,15.25 0.625,20 3.375,30.375 10.25,38.625 38.125,71.375 73.125,86 17.75,7.375 31.5,10.125 50.25,10.25 28.125,0.25 53.625,-7.375 74.125,-22 53.375,-38.125 70.625,-105.125 42.125,-162.75 -16.125,-32.75 -43.625,-55.25 -80.625,-66.25 -9.60938,-2.89063 -24.52906,-4.37305 -38.34375,-4.1875 z m 20.71875,8.59375 c 1.80745,-0.0566 3.32812,0.34375 3.875,1.21875 0.375,0.625 1.875,1.25 3.375,1.25 1.375,0 4.125,1.375 6.25,3.125 2,1.75 4.5,3.125 5.5,3.125 1.625,0 2.25,1.625 3.5,9.375 0.25,2 0.875,5 1.375,6.5 0.75,2.5 0.5,2.875 -2.625,2.875 -5,-0.125 -8.125,-2.125 -14.125,-8.875 -2.75,-3.25 -7.375,-6.75 -10.125,-7.875 -6.375,-2.5 -7.625,-5.375 -3.875,-8.5 1.75781,-1.33594 4.55111,-2.14597 6.875,-2.21875 z m -60.71875,7.34375 c 2.03979,-0.006 4.39062,1.17187 5.09375,3.125 1.75,4.375 10.875,5.375 14,1.625 2,-2.625 2.25,-2.625 4.5,-0.5 1.375,1.125 3.125,2.125 3.875,2.125 0.75,0 1.5,1.5 1.75,3.375 0.375,3.25 0.75,3.5 6,3.5 7.25,0 8,2.75 2,8.25 -4.875,4.375 -5.625,7.125 -2.25,8.125 7,2.25 10.5,4.5 11.75,8 1.625,4.875 2.75,4.75 4.375,-0.625 1,-3.25 1,-5.375 0,-8.125 -1.125,-2.875 -1.125,-4.375 0.125,-6.25 0.75,-1.375 1.5,-3.5 1.5,-4.625 0,-2.625 -5.625,-7.625 -9.625,-8.625 -1.75,-0.5 -2.875,-1.75 -2.875,-3.125 0,-3.125 1.125,-3 10.25,1.375 10.125,4.875 11.875,6.25 12.875,10.375 0.75,2.875 0.5,3.375 -1.75,3.375 -3.125,0 -3.25,1 -0.75,4.25 1.875,2.5 1.875,2.5 3.75,0 1.75,-2.25 2,-2.25 3.25,-0.25 0.625,1.25 2,2.25 2.875,2.25 1,0 2.625,1.375 3.75,3.125 1.125,1.75 2.875,3.125 4,3.125 3.625,0 11.875,10 8.375,10 -0.625,0 -2.25,0.375 -3.75,0.75 -2.5,0.75 -2.875,0.375 -2.875,-2.75 l 0,-3.5 -2.75,2.75 c -2.5,2.375 -2.625,3.125 -1.25,5.375 2,3.125 1,4.875 -2.875,4.875 -3.625,0 -6.125,2.375 -9.5,8.875 -1.25,2.625 -3,4.875 -3.625,4.875 -0.75,0 -1.25,1.5 -1.25,3.375 0,2.125 -1.25,4.375 -3.875,6.5 -4.125,3.5 -4.5,5.625 -2.875,15.125 l 0.875,5.625 -3,-2 c -1.625,-1.125 -3.125,-3.25 -3.375,-4.75 -0.25,-1.875 -2,-3.5 -4.625,-4.625 -5.375,-2.25 -6.875,-2.25 -6.875,0 0,3.25 -2.75,3.625 -5,0.75 -1.875,-2.5 -2.5,-2.625 -5.125,-1.25 -4.75,2.5 -7.25,5.125 -6.625,6.875 0.375,0.875 0.125,2.875 -0.75,4.25 -1.125,2.125 -0.875,3.875 1.125,8.375 2.25,5 3,5.625 6,5.25 2.125,-0.25 4,-1.5 5,-3.5 0.875,-1.75 1.625,-2.75 1.625,-2.25 0,0.5 1.375,0.375 3.125,-0.25 3,-1.125 5.625,0.375 3.125,1.875 -0.625,0.375 -1.25,3 -1.25,5.625 0,4.5 0.25,4.875 3.5,4.75 6.25,-0.125 6.5,0.125 6.5,5.375 0,7 2.625,9.375 7.625,7.375 3.25,-1.375 4.125,-1.375 5.875,0.375 1.875,1.875 2.25,1.75 6.125,-2.375 3.75,-4.125 4.5,-4.5 8.125,-3.625 4.875,1.125 9.125,1.125 13.5,0 2.375,-0.625 4.375,0.25 8.875,3.75 3.75,2.875 7.375,4.625 10.375,4.875 5.5,0.375 9.875,4.25 9.875,8.75 0,3.5 2.25,6.125 4.875,5.625 0.875,-0.25 2.875,0.125 4.5,0.625 1.75,0.625 3.5,0.375 4.625,-0.5 2.375,-2 6.5,-0.5 8.875,3.125 1.75,2.75 1.75,3.375 -0.125,7.375 -1.125,2.375 -2.875,5 -3.875,5.875 -1,0.75 -1.75,2.75 -1.75,4.375 0,1.625 -1.375,5.875 -3.125,9.625 -2.875,5.875 -4,7 -10.625,10 -4.125,2 -7.625,4.5 -8.125,5.875 -1.25,3.875 -13.375,15 -17.25,15.875 -2,0.375 -4.125,2 -4.875,3.5 -0.625,1.5 -3,3.625 -5.125,4.625 -3.75,1.875 -11.625,8.25 -17.875,14.5 -1.625,1.625 -3.5,2.625 -4.25,2.125 -2.375,-1.375 -0.5,-12.125 3.5,-20 2,-4.125 4.375,-10 5.25,-13.125 0.75,-3.125 2,-7.5 2.625,-9.625 1.625,-5.25 0.875,-6.25 -6.875,-9.75 -4.875,-2.125 -7.5,-4.375 -11,-9.625 -5,-7.25 -5.625,-9.625 -3.25,-12 1.125,-1.125 1.125,-1.875 0,-3 -2.375,-2.375 -1.875,-4.25 2.25,-8.875 4.25,-4.875 4.625,-7.75 1.75,-11.875 -1.625,-2.375 -2.375,-2.625 -3.75,-1.375 -2.875,2.375 -12.875,-3.125 -14.5,-7.75 -1,-2.875 -2,-3.625 -4.625,-3.625 -3.625,0 -10.75,-3 -12,-5.125 -0.5,-0.625 -2,-1.125 -3.5,-1.125 -3.625,0 -14.625,-5.75 -17.5,-9 -1.25,-1.5 -1.875,-3.625 -1.5,-4.875 0.5,-1.375 -0.625,-5.375 -2.375,-9.125 -1.75,-3.75 -3.25,-7.875 -3.25,-9.25 0,-1.375 -0.875,-3.125 -1.875,-4 -3,-2.5 -3.75,1.625 -1.375,8.625 2.25,7 2.5,8.875 1,8.875 -1.875,0 -7.75,-13 -7.75,-16.875 0,-2 -0.875,-8 -2,-13.125 l -2.125,-9.5 4.125,-7.125 c 3,-5.375 3.75,-8 3.125,-10.75 -0.625,-2.75 -0.25,-4 1.375,-4.875 1.75,-1 2,-2.375 1.375,-7.25 -0.375,-3.375 -1.25,-7.625 -2,-9.5 -1.125,-3 -1.5,-3.25 -6,-2.25 -2.5,0.625 -4.875,0.875 -5.125,0.625 -1.375,-1.25 10.375,-10.75 14.75,-11.875 2.75,-0.75 5.25,-1.875 5.625,-2.5 0.5625,-0.9375 1.68237,-1.37134 2.90625,-1.375 z m 49.84375,98.875 c 2.47003,-0.0718 6.24218,1.0625 10.625,3.125 3.5,1.75 7.875,3.125 9.625,3.125 1.75,0 4.125,0.625 5.125,1.25 1.5,0.875 0.75,1.5 -3,3.125 -2.625,1.125 -5.375,1.75 -6.25,1.375 -1.5,-0.875 -6,-3.75 -11.25,-7.5 -1.75,-1.25 -4.375,-2 -5.75,-1.625 -2.5,0.625 -3.25,-0.375 -1.625,-2 0.50781,-0.54687 1.37725,-0.84235 2.5,-0.875 z"
       id="path2979"
       style="fill:#000000" />
  </g>
</svg>
